<svg width="81" height="80" viewBox="0 0 81 80" fill="none" xmlns="http://www.w3.org/2000/svg">
<g clip-path="url(#clip0_452_3232)">
<mask id="mask0_452_3232" style="mask-type:luminance" maskUnits="userSpaceOnUse" x="0" y="0" width="81" height="80">
<path d="M80.0984 0.398438H0.898438V79.5984H80.0984V0.398438Z" fill="white"/>
</mask>
<g mask="url(#mask0_452_3232)">
<path d="M40.4979 78.4109C61.7123 78.4109 78.9099 61.2133 78.9099 39.9989C78.9099 18.7846 61.7123 1.58691 40.4979 1.58691C19.2836 1.58691 2.08594 18.7846 2.08594 39.9989C2.08594 61.2133 19.2836 78.4109 40.4979 78.4109Z" fill="url(#paint0_linear_452_3232)"/>
<path d="M57.3089 55.3047L44.3201 23.9019C43.5875 22.2783 42.4985 21.4863 41.063 21.4863H39.9146C38.4791 21.4863 37.3901 22.2783 36.6575 23.9019L31.0046 37.5837H26.7278C25.4507 37.5936 24.4112 38.6232 24.4013 39.9102V39.9399C24.4112 41.217 25.4507 42.2565 26.7278 42.2664H29.0246L23.6291 55.3047C23.5301 55.5918 23.4707 55.8888 23.4707 56.1957C23.4707 56.9283 23.6984 57.5025 24.1043 57.948C24.5102 58.3935 25.0943 58.6113 25.8269 58.6113C26.312 58.6014 26.7773 58.4529 27.1634 58.1658C27.5792 57.8787 27.8663 57.4629 28.094 56.9877L34.034 42.2565H38.1524C39.4295 42.2466 40.469 41.217 40.4789 39.93V39.8706C40.469 38.5935 39.4295 37.554 38.1524 37.5441H35.9546L40.4888 26.2482L52.844 56.9778C53.0717 57.453 53.3588 57.8688 53.7746 58.1559C54.1607 58.443 54.6359 58.5915 55.1111 58.6014C55.8437 58.6014 56.4179 58.3836 56.8337 57.9381C57.2495 57.4926 57.4673 56.9184 57.4673 56.1858C57.4772 55.8888 57.4277 55.5819 57.3089 55.3047Z" fill="white"/>
</g>
</g>
<defs>
<linearGradient id="paint0_linear_452_3232" x1="69.1374" y1="15.901" x2="11.9803" y2="63.9928" gradientUnits="userSpaceOnUse">
<stop stop-color="#B6509E"/>
<stop offset="1" stop-color="#2EBAC6"/>
</linearGradient>
<clipPath id="clip0_452_3232">
<rect width="79.2" height="79.2" fill="white" transform="translate(0.900391 0.400391)"/>
</clipPath>
</defs>
</svg>
