<svg id="Layer_1" data-name="Layer 1" xmlns="http://www.w3.org/2000/svg" viewBox="0 0 536.96 140.74">
  <defs>
    <style>
      .cls-1 {
        fill: #224191;
      }

      .cls-2 {
        fill: #ec2326;
      }
    </style>
  </defs>
  <title>Swotchive 4ai</title>
  <g>
    <g>
      <path class="cls-1" d="M184.68,93.57s64,35.24-4.72,48.63v-5.32s55.91-13.91,4.59-39Z" transform="translate(-89.04 -93.57)"/>
      <path class="cls-1" d="M198.47,114.17s-16.8-22.57-59.85-17.59-48.82,27.3-48.82,27.3S75.36,167.19,173,173.76l.07-2.72s-46.85,1.67-70.28-24.9c-11.22-14.57,11.62-30.12,19.1-32.68s32.88-13.68,71.86,2Z" transform="translate(-89.04 -93.57)"/>
      <path class="cls-2" d="M104.17,158.73s41.27-30,84.26-11.62c31.5,13.49,5.09,44-9.45,56.92a78.58,78.58,0,0,1-16.71,11.4c-12,6-33.25,14.33-51,8.06l.39-3.94s40.16,4.07,68.31-35.08-23.62-38.95-23.62-38.95-24.61-.59-49,15.16Z" transform="translate(-89.04 -93.57)"/>
      <path class="cls-2" d="M131,234.26s-67.55,3.2-21.89-42.58a6.18,6.18,0,0,1,5.65-1.77c1.45.32,2.59,1.17,1.85,3.24a5.06,5.06,0,0,1-1.19,1.82c-5,5.09-37.48,39.91,15.58,36.26Z" transform="translate(-89.04 -93.57)"/>
    </g>
    <g>
      <path class="cls-1" d="M222.68,234.11a20.47,20.47,0,0,1-6.89-1.07,14.62,14.62,0,0,1-5.62-3.78,12.06,12.06,0,0,1-3.06-7.46,48,48,0,0,1,.77-12.1l4-18.79a2.52,2.52,0,0,0-.36-2.2,2.47,2.47,0,0,0-2.09-.87h-2l1.23-5.82h9.5q10.42,0,8.48,9l-4.39,20.84q-1.43,6.74.31,10a5.75,5.75,0,0,0,5.41,3.22q3.88,0,7.61-3.47t5.36-10.93l4.29-19.92q1-4.7,3.63-6.69t8-2h5l-6.33,29.83q-1.43,6.74.36,10a5.78,5.78,0,0,0,5.36,3.22q3.88,0,7.76-4.09t5.51-11.64l3.88-18.59q1-4.6,3.68-6.64t8.07-2H295l-5.62,25.84A33.18,33.18,0,0,1,278,226.39q-9,7.71-22.32,7.71-9.7,0-12.87-8.17Q233.81,234.11,222.68,234.11Z" transform="translate(-89.04 -93.57)"/>
      <path class="cls-1" d="M309.7,233.08q-5.42,0-8.07-2.3T300,224l7-33.09q.61-3.06-2.45-3.06h-2l1.23-5.82H312q5.41,0,8.07,2.3t1.63,6.69l-7,33.19q-.51,3.06,2.45,3.06h2L318,233.08Zm6.74-57.3a6.71,6.71,0,0,1-5.57-2.5,7.06,7.06,0,0,1-1.28-6.08,10.53,10.53,0,0,1,3.78-6.13,10.17,10.17,0,0,1,6.64-2.55,6.66,6.66,0,0,1,5.57,2.55,7.2,7.2,0,0,1,1.28,6.13,10.82,10.82,0,0,1-3.88,6.08A10.16,10.16,0,0,1,316.44,175.78Z" transform="translate(-89.04 -93.57)"/>
      <path class="cls-1" d="M345.85,234.11q-8.79,0-11.8-6.59t-.36-19.15l3.68-17.57h-6.74l1.84-8.78h6.74l2.55-11.54q.51-3.06-2.45-3.06h-2.14l1.33-5.82h8.27q5.41,0,8.07,2.3t1.63,6.69L354,182h11l-1.94,8.78H352.19l-4.08,19.51q-1.63,6.64-1.12,10.37t3.68,3.73q3.88,0,6.44-4.49l3.68,2.14q3.88,2.35-.51,6.44A20.16,20.16,0,0,1,345.85,234.11Z" transform="translate(-89.04 -93.57)"/>
      <path class="cls-1" d="M392.74,234.31Q381,234.31,375,227t-3.42-19.3a32.86,32.86,0,0,1,11.64-19.3A32.2,32.2,0,0,1,404.07,181a24.08,24.08,0,0,1,10.16,2,14.49,14.49,0,0,1,6.49,5.31q2.55,4-2.35,6.33L414,196.82q-2-6.54-9.4-6.54A15.82,15.82,0,0,0,393.45,195a23.42,23.42,0,0,0-6.64,12.61q-1.64,7.76,1.33,12.51t9.09,4.75q7.36,0,12.16-6.54l3.47,2.15q3.68,2.45-.31,6.44a26.56,26.56,0,0,1-8.78,5.31A30.49,30.49,0,0,1,392.74,234.31Z" transform="translate(-89.04 -93.57)"/>
      <path class="cls-1" d="M423.48,233.08l14.4-67.72q.61-3.06-2.45-3.06h-2l1.23-5.82h8.27q5.52,0,8.12,2.3t1.69,6.69L448,187.12q7-6.13,15.32-6.13,8.89,0,13.58,5.77t2,18.64l-4,18.79a2.57,2.57,0,0,0,.36,2.25,2.41,2.41,0,0,0,2,.82h2.14l-1.23,5.82h-9.6q-10.32,0-8.48-9.09l4.39-20.43q1.53-6.84-.51-10.21a6.53,6.53,0,0,0-5.92-3.37A12.71,12.71,0,0,0,450,193.2a15.23,15.23,0,0,0-5.16,8.94l-4.7,22.27q-1,4.59-3.68,6.64t-8,2Z" transform="translate(-89.04 -93.57)"/>
      <path class="cls-1" d="M498.65,233.08q-5.42,0-8.07-2.3T488.95,224l7-33.09q.61-3.06-2.45-3.06h-2l1.23-5.82H501q5.41,0,8.07,2.3T510.7,191l-7,33.19q-.51,3.06,2.45,3.06h2l-1.23,5.82Zm6.74-57.3a6.71,6.71,0,0,1-5.57-2.5,7.06,7.06,0,0,1-1.28-6.08,10.53,10.53,0,0,1,3.78-6.13,10.17,10.17,0,0,1,6.64-2.55,6.66,6.66,0,0,1,5.57,2.55,7.2,7.2,0,0,1,1.28,6.13,10.82,10.82,0,0,1-3.88,6.08A10.16,10.16,0,0,1,505.39,175.78Z" transform="translate(-89.04 -93.57)"/>
      <path class="cls-1" d="M532.87,234.11q-18.69,0-13.59-23.9l4.09-19.3a2.52,2.52,0,0,0-.36-2.2,2.47,2.47,0,0,0-2.09-.87h-2L520.1,182h9.5q10.42,0,8.48,9l-4.49,21.14q-2.66,12.56,3.27,12.56,6.13,0,13-6.54a34.72,34.72,0,0,0,9.4-14.4,26.52,26.52,0,0,0,1.23-8.17,28.06,28.06,0,0,1,.82-7.25Q563,182,570.15,182h5.21l-1.84,7.87a70,70,0,0,1-5.46,15.78,74.16,74.16,0,0,1-8.89,14.15,42,42,0,0,1-12.05,10.37A28.39,28.39,0,0,1,532.87,234.11Z" transform="translate(-89.04 -93.57)"/>
      <path class="cls-1" d="M594.87,234.31q-11.75,0-17.72-7.4t-3.42-19.35a33.61,33.61,0,0,1,32.58-26.66,24.22,24.22,0,0,1,11.85,2.91,16.11,16.11,0,0,1,7,7.92q2.14,5-1.48,10T610.39,209l-22.16,5.51a11.22,11.22,0,0,0,3.37,7.71,11.05,11.05,0,0,0,7.76,2.71A20.21,20.21,0,0,0,610,222.1a24.41,24.41,0,0,0,7.3-6.49l3.37,2.14q3.78,2.35-.31,6.44a37.93,37.93,0,0,1-10.73,7.1A35,35,0,0,1,594.87,234.31Zm-5.62-28.19,14.2-3.58a19.54,19.54,0,0,0,7.3-3.22,4.5,4.5,0,0,0,1.89-4.75,4.73,4.73,0,0,0-2.4-3.22,8.8,8.8,0,0,0-4.54-1.17q-4.8,0-9.65,4.39A23.4,23.4,0,0,0,589.25,206.12Z" transform="translate(-89.04 -93.57)"/>
    </g>
  </g>
</svg>
