<svg id="katman_1" xmlns="http://www.w3.org/2000/svg" viewBox="0 0 1080 308"><defs><style>.cls-1{fill:#3860d1;}.cls-1,.cls-2{stroke-width:0px;}.cls-2{fill:#fff;}</style></defs><circle class="cls-1" cx="117.86" cy="149.01" r="94.78"/><path class="cls-2" d="M47.74,145.86c-.03-1.61.41-3.36,2.05-3.78,5.04-1.29,10.15-2.69,15.3-3.39,2.18-.4,3.62,1.41,4.54,3.11,1.33,2.48,2.62,4.99,3.91,7.49,2.59,5,5.14,10.02,7.65,15.06,1.08,2.16,2.76,6.81,6,4.63.97-.65,1.61-1.69,2.26-2.64,1-1.47,1.91-3.01,2.89-4.49,1.57-2.38,3.13-4.76,4.7-7.14,3.13-4.76,6.27-9.52,9.4-14.28,3.79-5.76,7.58-11.52,11.38-17.27,1.67-2.53,3.47-5.18,6.19-6.52,1.62-.79,3.44-1.05,5.23-1.3,5.59-.78,11.18-1.54,16.77-2.28,1.91-.25,1.77-1.69,1.47-3.13-.38-1.85-.75-3.7-1.13-5.55-.14-.67-.27-1.38-.06-2.03.32-.96,1.34-1.55,2.35-1.65s2.01.18,2.98.47c7.88,2.36,15.49,5.36,23.17,8.25.58.22,1.15.39,1.67.72.61.39,1.13.99,1.27,1.7.17.89-.27,1.79-.87,2.46-1.3,1.45-3,2.68-4.46,3.97-2.55,2.26-5.1,4.52-7.67,6.77-1.93,1.69-3.91,3.32-5.79,5.06-1.77,1.64-4.65,4.18-6.81,1.45-.95-1.2-.86-3.24-1.13-4.67-.14-.75-.29-1.62-.74-2.26-.69-.97-1.75-.66-2.78-.43-5.52,1.25-11.05,2.5-16.57,3.75-1.15.26-2.32.53-3.28,1.21-.91.64-1.54,1.58-2.15,2.5-9.12,13.71-17.39,27.97-26.44,41.73-2.39,3.63-4.81,7.24-7.27,10.82-1.75,2.56-4.32,7.38-8.07,6.64-1.54-.31-2.94-1.3-3.68-2.67-1.05-1.92-2.08-3.86-3.11-5.79-2.03-3.82-3.97-7.69-6.01-11.51-1.01-1.9-1.99-3.81-2.98-5.71-.49-.95-.98-1.91-1.47-2.86-1.11-2.15-2.2-4.31-3.28-6.48-.97-1.96-1.74-4.19-3-5.99-.76-1.09-1.83-2.02-3.12-2.35-2.24-.58-4.48.71-6.74,1.16-.54.11-1.12.16-1.62-.06-.93-.41-.92-1.88-.94-2.74Z"/><path class="cls-2" d="M146.98,152.67c1.78-.08,3.57-.18,5.35-.24,2.07-.07,2.74,2.34.96,3.44-.9.56-2.03.56-3.09.54-1.88,0-3.77-.06-5.65-.1-.94-.02-1.89-.01-2.83-.04-.72-.02-1.53-.15-2.12.37-.69.62-.86,2-1.12,2.86-.43,1.38-.85,2.76-1.28,4.13-1.65,5.35-3.34,10.69-4.82,16.08-.38,1.39-.46,2.63.34,3.91,1.23,1.81,3.71,2.42,5.87,2.03s4.07-1.57,5.92-2.74c.63-.4,1.28-.81,2.01-.98s1.56-.08,2.11.43c.37.34.55.89.45,1.38-.1.52-.6.92-1.05,1.14-.57.29-1.11.64-1.66.97-1.17.7-2.37,1.36-3.58,2-1.84.97-3.71,1.82-5.7,2.42-3.71,1.13-7.77,1.31-11.42-.15-1.72-.69-3.57-1.87-4.19-3.72-.6-1.79-.21-3.76.32-5.52.58-1.94,1.14-3.89,1.72-5.83s1.17-3.9,1.77-5.85c1.15-3.73,2.48-7.44,3.48-11.2.1-.38.13-.82-.09-1.16-.21-.34-.61-.51-1.01-.56-.89-.12-1.87.1-2.76.13s-2.71.22-3.34-.63c-.19-.25-.22-.59-.16-.9.39-2,2.36-2.51,4.11-2.73,2.94-.36,5.78-1.45,8.25-3.09,2.46-1.64,4.2-3.78,5.98-6.1.49-.64,1-1.29,1.7-1.7.73-.43,2.32-.67,2.65.39.12.4.04.84-.04,1.25-.36,1.78-.91,3.51-1.45,5.24-.34,1.08-1.61,3.44-.3,4.27.52.33,1.18.34,1.8.33.95-.02,1.91-.05,2.86-.09Z"/><path class="cls-2" d="M1060.26,177.79c.02,5.26.05,10.53.11,15.79.13,11.84.8,24.38-2.12,35.93-4.55,18.03-21.79,25.97-39.04,27.2-7.46.53-15.05-.05-22.33-1.76-11.66-2.73-22.11-9.05-29.11-18.89-.3-.43-.55-.89-.81-1.35-.42-.72-.9-1.6-.71-2.47.18-.79.94-1.45,1.78-1.28.5.11.93.42,1.34.71,1.97,1.38,4.13,2.45,6.3,3.48,3.41,1.59,6.95,2.88,10.58,3.87,7.25,1.98,14.84,2.73,22.34,2.15,4.89-.38,9.79-1.32,14.26-3.33,7.99-3.6,12.12-9.72,14.42-17.95.75-2.7-1.32-3.28-3.45-2.89-5.37,1-10.77,1.76-16.23,1.99-9.81.41-19.52.94-29.21-1.23-9.09-2.03-17.84-6.18-24.41-12.78-9.98-10.02-14.17-24.77-13.57-38.65.62-14.26,6.54-27.89,17.89-36.78,8.36-6.55,18.96-10.31,29.62-10,6.47.19,13.02,1.71,18.85,4.69,6.29,3.22,10.89,8.19,15.83,13.1.83.83,1.68,1.64,2.58,2.4.22.19.46.37.74.43.43.09.89-.12,1.16-.46s.4-.78.45-1.22c.21-2.06.03-4.22,0-6.28-.04-2.21-.09-4.41-.09-6.62,0-2.14-.22-4.42,2.41-4.61,3.79-.28,7.98-.3,11.58,1.1,5.49,2.13,8.5,7.41,8.6,13.14.25,14.2.21,28.38.25,42.56ZM1037.43,173.05c0-.54,0-1.07,0-1.61,0-2.37.09-4.75.13-7.12.06-3.29.05-6.57.04-9.86,0-2.82.15-5.69-1.34-8.22-1.42-2.4-3.65-4.17-5.74-5.95-2.09-1.78-4.99-2.87-7.58-3.82-5.67-2.08-11.75-3.04-17.78-2.78-6.6.29-13.21,2.07-18.71,5.72-4.63,3.07-8.1,7.4-10.2,12.54-1.69,4.16-2.52,8.62-2.95,13.09-1.23,12.84,1.96,28.2,14.35,34.78,6.35,3.37,14.24,3.76,21.29,3.58,8.23-.21,16.38-1.53,24.59-2.04,2.66-.16,3.98-1.81,3.94-4.69-.11-7.87-.07-15.75-.05-23.62Z"/><path class="cls-2" d="M768.2,160.84c0,17.13,0,34.26,0,51.39,0,4.13-.57,4.9-4.59,5.2-10.96.81-22.14,1.61-33.21,1.89-10.81.27-22.34.66-33.01-1.34-13.58-2.54-25.44-10.5-32.33-22.55-7-12.23-7.86-26.49-4.81-40.03,2.08-9.22,7.02-17.77,14.25-23.88,4.95-4.18,10.73-7.36,16.92-9.27,5-1.54,10.25-2.24,15.48-2.1,4.95.14,10.34.83,14.93,2.71,3.05,1.24,5.89,2.94,8.62,4.77.68.46,1.35.93,2.01,1.4,3.3,2.38,6.38,5.08,9.07,8.2.69.8,1.32,2.23,2.72,1.62,1.37-.59,1.24-2.04,1.24-3.32.03-12.08.07-24.17.09-36.25.01-6.17.65-6.75,6.92-6.56,5.34.16,10.31,1.19,13.31,6.19,1.98,3.3,2.38,7.12,2.4,10.85.11,17.02.05,34.05.05,51.07h-.06ZM745.27,173.38c.02-1.45.03-2.9.05-4.35.05-4.66.1-9.31.16-13.97.04-3.9.26-7.49-2.46-10.61-8.48-9.73-23.99-12.6-36.2-10.13-6.73,1.36-13.15,4.72-17.62,9.93-4.18,4.86-6.49,11.1-7.61,17.41-1.18,6.71-1.07,13.72.97,20.22,2.04,6.5,6.1,12.45,11.79,16.2,4.39,2.89,9.52,4.3,14.71,4.85,5.56.59,11.09.19,16.66-.09l12.38-.63c1.27-.06,2.55-.14,3.78-.47s2.15-.85,2.68-2.05c.43-.95.44-2.02.46-3.06.09-7.75.17-15.5.26-23.25Z"/><path class="cls-2" d="M404.77,82.65c.06.15.05.32.02.47-.16.79-.71,1.53-1.27,2.09-.55.55-1.2.98-1.87,1.35-1.1.61-2.28,1.07-3.4,1.67-6.51,3.51-10.19,8.92-12.78,15.55-2.89,7.39-6.16,14.63-9.22,21.95-2.85,6.84-5.54,13.74-8.45,20.54-3,7-5.76,14.09-8.88,21.04-3.36,7.48-5.98,15.28-9.17,22.84-1.62,3.86-3.14,7.76-4.68,11.66-1.42,3.6-2.7,7.36-4.44,10.82-.96,1.92-2.3,3.71-4.16,4.84-2.76,1.67-5.82,1.51-8.88,1.12s-6-1.59-8.42-3.52c-2.82-2.24-5.2-5.34-7.3-8.25-2.27-3.14-4.22-6.5-5.97-9.95s-3.45-7.29-5.04-10.99c-4.32-10.1-8.87-20.13-13.29-30.2-.59-1.35-1.14-2.74-1.78-4.07-3.78-7.76-6.96-15.88-10.43-23.78-3.46-7.9-7.13-15.68-10.71-23.54-.99-2.16-2.03-4.41-3.88-5.9-4.1-3.31-9.67-1.72-14.45-2.05-.68-.05-1.38-.14-1.95-.5-.55-.35-.94-.92-1.16-1.53-.6-1.67,0-3.59,1.11-4.97,2.91-3.61,8.72-5.43,13.06-6.38,3.75-.83,7.6-1.11,11.43-1.05,3.27.05,7.64-.49,10.11,2.1,1.17,1.24,1.89,2.82,2.59,4.38,9.11,20.36,17.94,40.84,26.91,61.27,1.14,2.61,2.29,5.21,3.43,7.82,1.15,2.61,2.29,5.21,3.44,7.81s2.3,5.21,3.45,7.81c.22.65.57,1.28.85,1.91s.58,1.3.87,1.95c1.08,2.41,2.15,4.82,3.22,7.23.27.61.58,1.26,1.17,1.58.5.27,1.14.24,1.66,0s.93-.68,1.24-1.16.52-1.02.74-1.55c.63-1.59,1.27-3.18,1.92-4.75,1.08-2.6,2.15-5.21,3.25-7.8.74-1.75,1.49-3.5,2.26-5.24,3.69-8.39,7.64-16.67,11.32-25.07,2.88-6.59,5.48-13.31,8.28-19.93,1.87-4.42,3.92-8.77,5.83-13.17,2.26-5.2,4.51-10.41,6.74-15.62.89-2.07,1.66-4.24,2.69-6.25.79-1.53,2.15-2.91,3.94-3.07,1.33-.12,2.7-.06,4.03-.08,1.43-.02,2.85-.04,4.28-.05,5.7-.06,11.4-.06,17.1,0,.97,0,1.94,0,2.91.03.54.02,1.5,0,1.74.62Z"/><path class="cls-2" d="M644.37,183.36c-.1,10.08-.09,20.18.03,30.24.03,2.74-1.3,3.88-3.66,4.14-3.97.43-7.94.86-11.93,1-12.47.45-25.09.93-37.61.78-11.14-.14-23.26-1.07-33.27-6.31-6.07-3.18-11.52-8.05-14.04-14.42-2.62-6.62-1.8-14.44,1.81-20.52,3.06-5.14,7.92-8.92,13.2-11.6,5.66-2.88,11.87-4.65,18.1-5.76,4.66-.84,9.39-1.28,14.11-1.52,8.92-.47,17.85-.39,26.77-.53,3.52-.06,4.55-1.3,4.52-4.87-.06-7.43-2.73-14.47-9.86-17.68s-14.24-4.62-21.78-4.9c-4.66-.17-9.33.09-13.97.6s-9.19.9-13.45,2.45c-5.77,2.1-10.45,6.41-14.34,11.04-.68.81-1.33,2.33-2.64,2.07-1.88-.37-1.36-2.95-.95-4.19.63-1.88,1.77-3.54,3-5.07,5.75-7.15,13.88-11.91,22.51-14.75,10.05-3.3,20.85-4.43,31.38-3.88,1.5.08,3,.19,4.5.34,6.4.63,12.78,1.9,18.68,4.46,4.11,1.79,7.99,4.22,11.2,7.37,3.45,3.39,5.75,7.32,6.86,12.03.44,1.89.73,3.82.91,5.75.5,5.49.31,11.09.19,16.58-.13,5.7-.22,11.43-.28,17.17ZM596.05,204.49c2.97-.04,5.95-.13,8.92-.25,4.21-.16,8.4-.35,12.59-.82,1.41-.16,2.93-.39,3.95-1.39,1.41-1.37,1.22-3.38,1.17-5.16-.06-2.28-.04-4.57-.06-6.85-.04-4.86-.08-9.71-.18-14.57-.08-3.9-1.04-4.71-4.99-4.74-10.72-.08-21.4.09-32.05,1.74-5.19.8-10.01,2.22-14.32,5.03-4.67,3.05-7.29,8.6-5.89,14.11,1.05,4.14,4.19,7.3,7.83,9.34,4.59,2.57,9.69,3.24,14.88,3.45,2.72.11,5.43.13,8.15.1Z"/><path class="cls-2" d="M878.82,133.43c1.35,0,2.71,0,4.06.05,5.31.18,10.68.98,15.58,3.1,3.71,1.61,7.09,4.03,9.43,7.36,2.28,3.24,3.43,7.12,3.75,11.05,1.09,13.42.72,26.88.81,40.32.03,4.52.21,8.91,1.86,13.29.76,2.04,1.91,4.24,3.59,5.67s3.98,2.27,6.22,2.6c2.42.36,4.89.34,7.31.11,1.09-.11,2.14-.53,2.59-1.6.28-.66.31-1.39.29-2.1-.09-2.2-.13-4.39-.14-6.59,0-2.85,0-5.7,0-8.55,0-5.7,0-11.4,0-17.11s-.03-11.4-.08-17.1c-.04-5.02-.11-10.03-.21-15.05-.11-5.67-2.26-11.26-6-15.88-7.12-8.8-17.21-11.59-27.67-11.89-19.84-.57-39.72-.17-59.58-.15-4.42,0-4.82.44-4.83,4.89,0,5.35,0,10.7-.01,16.06,0,11.39-.01,22.77-.02,34.16,0,5.69,0,11.39,0,17.08,0,.89,0,1.78.01,2.68.04,4,.35,7.99,1.77,11.76,1.25,3.32,3.57,6.34,6.72,8.04,1.57.85,3.32,1.27,5.08,1.5,1.97.25,3.99.39,5.97.06.81-.14,1.65-.38,2.2-.98.67-.74.74-1.81.79-2.75.09-1.7-.05-3.43-.06-5.13,0-4.21-.04-8.42-.04-12.63s.01-8.55.03-12.83c.01-2.52.02-5.05.04-7.57,0-1.91.02-3.82.03-5.73.03-5.7.05-11.41.06-17.11,0-2.85,0-5.7,0-8.56,0-1.17-.02-2.34-.02-3.51s-.15-2.3-.1-3.45c.05-1.16.42-2.4,1.35-3.1.77-.58,1.73-.69,2.66-.66l16.6.28Z"/><path class="cls-2" d="M414.75,165.88c0-9.24-.07-18.49.04-27.73.03-2.98-1.12-4.17-4.09-4.08-4.62.13-9.24.07-13.87.03-2.37-.02-4.74-.08-5-3.4-.13-1.66-.35-3.83.66-5.29,1.22-1.76,4.11-1.75,6.03-1.98,3.38-.41,6.74-.98,10.07-1.69,3.38-.72,6.83-1.65,9.56-3.77,2.28-1.77,3.9-4.26,5.34-6.76.92-1.6,1.87-3.22,2.64-4.9.79-1.71,1.33-3.41,2.98-4.5.99-.66,2.15-1.03,3.32-1.21,2.59-.4,4.72.72,4.73,3.53.01,5.28.07,10.56-.09,15.83-.04,1.39.41,3.07,1.86,3.58.67.24,1.39.23,2.1.22,3.9,0,7.81-.06,11.71-.12,1.96-.03,3.92,0,5.87-.09,1.36-.05,2.94-.29,4.04.72,1.15,1.06,1.39,2.66,1.51,4.13.11,1.3.29,2.74-.41,3.92-1.39,2.35-4.99,2.11-7.31,2.01-2.07-.08-4.14-.17-6.21-.25s-4.03-.04-6.06-.01c-.49,0-.98.01-1.47.01-4.73.03-5.32.6-5.35,5.24-.14,19.96.02,39.93-.48,59.88-.07,2.87.31,6.01,2.09,8.37,2.3,3.05,5.98,3.49,9.49,3.16,3.87-.36,7.71-1.08,11.38-2.35,1.27-.44,3.03-1.66,4.11-.27.68.87.57,2.37-.31,3.07-2.37,1.91-5.09,3.07-7.81,4.38-3.72,1.79-7.59,3.33-11.75,3.6s-8.3-.5-12.2-1.86c-4.05-1.41-7.94-3.52-10.84-6.68-2.95-3.24-4.71-7.43-5.57-11.73-1.07-5.33-.73-10.77-.74-16.16,0-1.41.01-16.86.02-16.86h-.02Z"/><path class="cls-2" d="M478.39,163.75c.05-4.79.1-9.59.14-14.38.06-7.33.11-14.65.17-21.98.01-1.56-.53-4.48.84-5.71,1.26-1.14,3.95-.73,5.48-.74,3.99,0,7.99.09,11.98-.02,2.39-.07,3.79.67,3.99,3.26.18,2.23.59,3,3.53,2.03,10.16-3.35,20.59-5.42,30.88-.35,2.4,1.18,4.8,2.56,6.72,4.56.33.35.73.75.76,1.26.03.56-.32,1.03-.83,1.21-.5.18-1.11.13-1.64.09-.59-.05-1.17-.17-1.74-.3-.86-.2-1.7-.45-2.56-.61s-1.78-.31-2.68-.4c-1.05-.1-2.1-.14-3.15-.13-.34,0-.67.02-1.01.04-2,.11-3.99.43-5.93.95-.71.19-1.42.41-2.12.65-11.38,3.98-19.91,10.19-20.1,23.48-.27,18.59-.09,37.19-.1,55.79,0,.78.11,1.55.03,2.33-.06.68-.25,1.34-.81,1.78-.55.43-1.29.55-1.99.58-.79.04-1.57,0-2.36-.02s-1.57-.01-2.35-.06c-1-.06-2-.16-2.99-.33-.85-.15-1.7-.34-2.53-.61-2.07-.66-4.04-1.77-5.53-3.36s-2.48-3.84-3.03-6.03c-.57-2.32-.75-4.72-.83-7.11-.42-11.95-.35-23.91-.23-35.87Z"/><path class="cls-2" d="M813.67,174.63c0,12.6.01,25.21,0,37.81,0,.95.09,1.91-.11,2.85-.27,1.24-1.4,1.93-2.6,2.07-1.72.19-3.45.1-5.17,0-2.15-.12-4.33-.28-6.29-1.24-1.85-.91-3.4-2.26-4.58-3.95-.48-.68-.89-1.41-1.24-2.17-1.61-3.48-2.19-7.4-2.42-11.2-.09-1.44-.12-2.88-.11-4.32.06-22.78.12-45.57.18-68.35,0-.99.02-1.95.13-2.93.12-1.09.57-2.08,1.87-2.18,6.08-.45,12.15-.52,16.4,4.84,2.56,3.22,4.08,6.97,4.05,11.28-.08,12.5-.03,24.99-.03,37.49h-.08Z"/><path class="cls-2" d="M791.24,80.74c-.48-6.45,5.57-11.23,11.01-11.36,5.74-.14,11.39,5.49,11.4,11.18.02,6.11-5.32,11.29-11.55,11.18-5.95-.1-11.5-5.34-10.87-10.99Z"/></svg>