<?xml version="1.0" encoding="utf-8"?>
<!-- Generator: Adobe Illustrator 24.3.0, SVG Export Plug-In . SVG Version: 6.00 Build 0)  -->
<svg version="1.0" id="Layer_1" xmlns:xodm="http://www.corel.com/coreldraw/odm/2003"
	 xmlns="http://www.w3.org/2000/svg" xmlns:xlink="http://www.w3.org/1999/xlink" x="0px" y="0px" viewBox="0 0 2500 2500"
	 style="enable-background:new 0 0 2500 2500;" xml:space="preserve">
<style type="text/css">
	.st0{fill:#0657F9;}
	.st1{fill-rule:evenodd;clip-rule:evenodd;fill:#FFFFFF;}
</style>
<g id="Layer_x0020_1">
	<g id="_2347581141328">
		<circle class="st0" cx="1250" cy="1250" r="1103.28"/>
		<path class="st1" d="M790.15,580.97l-87.38,88.26L914.6,884.59l211.83,215.36v201.24v201.24H1250h123.57v-201.24v-201.24
			l211.83-215.36l211.83-215.36l-87.38-89.14l-87.38-89.14l-185.35,188c-101.5,103.27-186.23,188-187.12,188
			c-1.77,0-85.61-83.85-187.12-187.12c-101.5-103.27-184.47-187.12-185.35-187.12s-40.6,39.72-88.26,88.26H790.15z M699.24,1084.95
			c-30.89,54.72-59.14,150.93-67.08,228.6c-3.53,37.95-1.77,120.92,3.53,158.87c53.84,349.52,378.64,587.83,721.1,526.93
			c225.95-39.72,411.3-201.24,482.79-421.01c23.83-72.38,31.77-120.92,31.77-200.36c0-85.61-9.71-142.1-37.07-220.66
			c-9.71-27.36-33.54-80.32-37.07-80.32c-0.88,0-44.13,42.37-94.44,94.44c-85.61,87.38-92.68,94.44-90.91,101.5
			c0.88,4.41,3.53,15.89,5.3,26.48c6.18,30.01,8.83,71.49,7.06,105.03c-2.65,36.19-7.06,58.25-17.65,91.79
			c-34.42,109.45-125.33,203-234.78,240.96c-41.48,14.12-65.31,17.65-119.15,18.54c-54.72,0-75.02-2.65-117.39-16.77
			c-115.62-37.95-209.18-136.81-242.72-254.2c-10.59-37.95-14.12-62.67-14.12-108.56c0-42.37,1.77-53.84,12.36-103.27
			c0.88-4.41-19.42-26.48-92.68-100.62l-93.56-95.32l-5.3,8.83V1084.95z"/>
	</g>
</g>
</svg>
