<svg width="32" height="33" viewBox="0 0 32 33" fill="none" xmlns="http://www.w3.org/2000/svg">
<path d="M30.1913 13.1651L21.9524 15.9078L23.4392 14.1202L30.1913 13.1651ZM30.1913 12.3836V12.8568L30.0821 12.391L23.33 13.3461L22.8388 13.6202L21.352 15.4078L22.1989 16.6491L30.4379 13.9064L30.1913 12.8581V12.3836Z" fill="#B2F1A8"/>
<path d="M27.6069 7.67903L21.1945 13.5365L21.8076 11.3112L27.6069 7.67903ZM27.6069 6.89751V7.5624L27.1921 7.01682L21.3929 10.649L21.0545 11.1034L20.4414 13.3287L21.7212 14.1135L28.1336 8.25613L27.6069 7.56307V6.89751Z" fill="#B2F1A8"/>
<path d="M21.9524 15.9078L30.5752 16.9219L23.7702 17.3569L16.4828 16.6036L21.9524 15.9085M22.0435 15.1323H21.8539L16.3843 15.8281L16.4024 17.3804L23.6898 18.1338L23.8198 18.1364L30.6248 17.7014L30.6663 16.1458L22.0435 15.1317V15.1323Z" fill="#B2F1A8"/>
<path d="M23.0157 3.71846L19.5449 11.6664L19.1757 9.42305L23.0157 3.71846ZM23.0164 2.93693V3.63803L22.3685 3.28212L18.5284 8.98671L18.4058 9.55041L18.775 11.7938L20.2618 11.9794L23.7327 4.03147L23.0171 3.63803V2.93693H23.0164Z" fill="#B2F1A8"/>
<path d="M9.0466 3.71242L12.882 9.47533L16.4821 16.6029L12.4323 11.5766L9.0466 3.71175M9.69721 3.27944L8.32964 4.02142L11.7154 11.8863L11.8246 12.0679L15.8744 17.0942L17.1796 16.2517L13.5795 9.12411L13.5326 9.04369L9.69721 3.28078V3.27944Z" fill="#B2F1A8"/>
<path d="M20.8723 2.78679L19.1757 9.42305L16.4821 16.6036L17.2714 10.6175L20.8723 2.78679ZM20.8729 2.71173L20.1633 2.45971L16.5625 10.2904L16.4975 10.5149L15.7082 16.501L17.2138 16.8777L19.9074 9.69719L19.9329 9.61609L21.6294 2.97983L20.8729 2.71173Z" fill="#B2F1A8"/>
<path d="M14.8613 1.99254L16.0151 8.77827L16.4828 16.6029L14.7567 10.5819L14.8613 1.99254ZM15.6312 1.86184L14.08 1.98315L13.9755 10.5726L14.0056 10.7978L15.7317 16.8187L17.262 16.5567L16.7943 8.73202L16.785 8.64757L15.6312 1.86184Z" fill="#B2F1A8"/>
<path d="M26.0403 5.95847L21.8076 11.3112L16.4828 16.6036L19.5456 11.6664L26.0403 5.95847ZM26.041 5.17695V5.86129L25.5257 5.37132L19.031 11.0793L18.8829 11.2542L15.8201 16.1913L17.0342 17.1579L22.3591 11.8655L22.4214 11.7958L26.6541 6.44307L26.0417 5.86129V5.17695H26.041Z" fill="#B2F1A8"/>
<path d="M17.2104 1.96773L17.2714 10.6168L16.0151 8.77827L17.2104 1.96773ZM16.4412 1.83301L15.2459 8.64354L15.3705 9.21996L16.6268 11.0585L18.0527 10.6121L17.9917 1.96303L16.4412 1.83368V1.83301Z" fill="#B2F1A8"/>
<path d="M29.4723 10.958L23.4392 14.1209L16.4828 16.6036L21.1945 13.5371L29.4723 10.9586M29.473 10.7736L29.2405 10.2119L20.9627 12.7904L20.7691 12.8816L16.0573 15.9481L16.7461 17.3388L23.7025 14.8562L23.8024 14.8126L29.8355 11.6497L29.473 10.7736Z" fill="#B2F1A8"/>
<path d="M11.4467 20.5983L11.4722 22.7123L6.47361 27.5469L11.446 20.5976M10.8115 20.1439L5.83908 27.0932L7.01702 28.1099L12.0156 23.2754L12.2534 22.7043L12.228 20.5903L10.8115 20.1452V20.1439Z" fill="#B2F1A8"/>
<path d="M15.9856 22.5816L17.585 24.0964L17.8302 30.9726L15.9856 22.5816ZM16.5223 22.0139L15.2224 22.7492L17.0671 31.1402L18.6109 30.9445L18.3656 24.0683L18.1217 23.5287L16.5223 22.0139Z" fill="#B2F1A8"/>
<path d="M18.44 22.0354L20.5506 22.8256L23.5551 28.9752L18.4393 22.0354M18.714 21.3034L17.8115 22.4992L22.9273 29.4391L24.258 28.6321L21.2535 22.4824L20.8253 22.0937L18.7147 21.3034H18.714Z" fill="#B2F1A8"/>
<path d="M22.745 20.4408L27.9728 24.8216L20.4521 20.5487L22.745 20.4408ZM22.7089 19.6606L20.416 19.7685L20.0669 21.2284L27.5875 25.5013L28.4746 24.2231L23.2469 19.8423L22.7089 19.6606Z" fill="#B2F1A8"/>
<path d="M2.55249 10.8567L10.7117 13.4446L8.73234 14.137L2.55249 10.8567ZM2.78902 10.1121L2.18665 11.5471L8.36649 14.8274L8.99031 14.875L10.9696 14.1826L10.9482 12.7L2.78902 10.1121Z" fill="#B2F1A8"/>
<path d="M6.01061 5.87469L12.433 11.5766L10.3137 11.3735L6.01061 5.87402M6.52856 5.29022L5.39484 6.35593L9.69788 11.8554L10.2386 12.1517L12.358 12.3548L12.951 10.9928L6.52856 5.29089V5.29022Z" fill="#B2F1A8"/>
<path d="M11.1954 2.7305L14.7567 10.5819L12.8826 9.47533L11.1954 2.7305ZM11.9064 2.40743L10.4369 2.92017L12.1241 9.66502L12.4846 10.1483L14.3587 11.2549L15.467 10.2589L11.9057 2.40743H11.9064Z" fill="#B2F1A8"/>
<path d="M9.90894 15.8616L8.39865 17.2973L1.41945 16.8154L9.90894 15.8623M9.90961 15.0807V15.2731L9.8225 15.0854L1.33301 16.0385L1.36651 17.5949L8.34572 18.0768L8.93737 17.8637L10.4477 16.428L9.91028 15.2731V15.0801L9.90961 15.0807Z" fill="#B2F1A8"/>
<path d="M10.1703 18.3965L9.36487 20.3249L2.80711 22.719L10.1709 18.3965M10.1709 17.6157V18.0688L9.7756 17.7236L2.41179 22.0461L3.07513 23.4543L9.63289 21.0601L10.0858 20.6272L10.8912 18.6988L10.1709 18.0694V17.6157Z" fill="#B2F1A8"/>
<path d="M13.5104 22.0769L14.3741 24.0508L11.7884 30.4679L13.5098 22.0769M14.2254 21.7639L12.7446 21.9201L11.0232 30.3111L12.5128 30.7602L15.0985 24.3431L15.0898 23.7378L14.2261 21.7639H14.2254Z" fill="#B2F1A8"/>
<path d="M16.4828 16.6029L10.1703 18.3965L1.662 19.1854L8.39865 17.2966L16.4828 16.6022M16.4835 15.822V16.19L16.4165 15.8247L8.33232 16.5191L8.18827 16.5452L1.45161 18.4341L1.73437 19.9643L10.2426 19.1754L10.384 19.1492L16.6965 17.3556L16.4835 16.192V15.822Z" fill="#B2F1A8"/>
<path d="M16.4828 16.6029L18.4407 22.0347L20.1352 30.5202L17.5857 24.0958L16.4835 16.6022M17.2172 16.3381L15.7095 16.7168L16.8118 24.2104L16.8587 24.3846L19.4082 30.8091L20.9004 30.3674L19.2058 21.8819L19.175 21.7699L17.2172 16.3381Z" fill="#B2F1A8"/>
<path d="M16.4828 16.6029L21.6911 18.3831L29.1574 22.8182L22.7457 20.4401L16.4828 16.6022M16.7354 15.8636L16.0747 17.2691L22.3377 21.1071L22.4743 21.1734L28.886 23.5515L29.5567 22.1473L22.0904 17.7122L21.9443 17.6445L16.7361 15.8643L16.7354 15.8636Z" fill="#B2F1A8"/>
<path d="M16.4828 16.6029L20.4528 20.548L25.4641 27.6287L20.5513 22.8256L16.4828 16.6029ZM17.0329 16.0486L15.8288 17.0305L19.8973 23.2532L20.0052 23.3846L24.918 28.1877L26.1013 27.1776L21.09 20.097L21.0029 19.9944L17.0329 16.0493V16.0486Z" fill="#B2F1A8"/>
<path d="M16.4828 16.6029L13.5104 22.0769L8.37655 28.9665L11.4728 22.7123L16.4828 16.6029ZM16.4835 15.822V16.5144L15.8797 16.1076L10.8698 22.217L10.774 22.3658L7.67768 28.62L9.00371 29.4337L14.1376 22.5441L14.1979 22.4503L17.1703 16.9762L16.4841 16.5144V15.822H16.4835Z" fill="#B2F1A8"/>
<path d="M16.4828 16.6029L15.9856 22.5816L14.09 30.9941L14.3741 24.0508L16.4828 16.6029ZM16.4835 15.822V16.5272L15.7317 16.3904L13.623 23.8384L13.5942 24.0193L13.3101 30.9626L14.8526 31.1663L16.7481 22.7539L16.7649 22.6466L17.262 16.6679L16.4841 16.5265V15.8214L16.4835 15.822Z" fill="#B2F1A8"/>
<path d="M16.4828 16.6029L11.4474 20.5983L3.97969 24.7901L9.36554 20.3249L16.4835 16.6029M16.4835 15.822V16.4682L16.1216 15.9112L9.00371 19.6331L8.86702 19.7243L3.48118 24.1896L4.36162 25.4725L11.8293 21.2807L11.9325 21.2116L16.9679 17.2162L16.4828 16.4688V15.8227L16.4835 15.822Z" fill="#B2F1A8"/>
<path d="M4.43466 7.64954L10.313 11.3742L16.4828 16.6029L10.7117 13.4446L4.43466 7.64954ZM4.85277 6.98934L3.90533 8.22396L10.1823 14.019L10.3371 14.1303L16.1082 17.2886L16.988 16.007L10.8182 10.7783L10.7311 10.7146L4.85277 6.99V6.98934Z" fill="#B2F1A8"/>
<path d="M23.7702 17.3563L30.3206 19.229L21.6904 18.3831L23.7695 17.3563M23.9846 16.6056L23.4238 16.6565L21.3446 17.6834L21.614 19.162L30.2442 20.0078L30.535 18.479L23.9846 16.6063V16.6056Z" fill="#B2F1A8"/>
<path d="M1.82282 13.1229L8.73301 14.137L16.4828 16.6029L9.90961 15.8616L1.82282 13.1229ZM1.93605 12.3501L1.57222 13.8635L9.65902 16.6022L9.82183 16.6384L16.395 17.3797L16.7193 15.8589L8.96954 13.393L8.84626 13.3649L1.93605 12.3508V12.3501Z" fill="#B2F1A8"/>
</svg>
