<svg width="32" height="33" viewBox="0 0 32 33" fill="none" xmlns="http://www.w3.org/2000/svg">
<path d="M15.8794 8.91132L15.9045 7.40946L14.3328 1.83301L13.9288 10.1746C14.7532 10.5219 15.8603 10.0105 15.8787 8.91132H15.8794Z" fill="#B2F1A8"/>
<path d="M15.3483 15.525L13.5809 11.0458L6.88824 4.88545L9.78909 10.1496L15.3483 15.525Z" fill="#B2F1A8"/>
<path d="M10.5489 11.2191L9.5044 10.139L4.45 7.30727L10.0626 13.4914C10.8916 13.154 11.3127 12.0092 10.5482 11.2191H10.5489Z" fill="#B2F1A8"/>
<path d="M16.2287 15.3497L18.1457 10.9331L17.7694 1.84485L16.0982 7.61765L16.2287 15.3497Z" fill="#B2F1A8"/>
<path d="M23.5882 16.3791L25.09 16.4041L30.6663 14.8324L22.3249 14.4284C21.9776 15.2529 22.489 16.36 23.5882 16.3784V16.3791Z" fill="#B2F1A8"/>
<path d="M21.2804 11.0484L22.3605 10.0046L25.1922 4.95006L19.0083 10.5627C19.3457 11.3918 20.4903 11.8129 21.2804 11.0484Z" fill="#B2F1A8"/>
<path d="M14.8501 16.271L10.4329 14.354L1.34488 14.7303L7.11822 16.4008L14.8501 16.271Z" fill="#B2F1A8"/>
<path d="M16.9746 15.8486L21.4531 14.0805L27.6133 7.38835L22.35 10.2892L16.9746 15.8486Z" fill="#B2F1A8"/>
<path d="M16.6511 17.4743L18.4185 21.9535L25.1111 28.1139L22.2103 22.8498L16.6511 17.4743Z" fill="#B2F1A8"/>
<path d="M21.4505 21.7802L22.4943 22.8603L27.5487 25.692L21.9361 19.508C21.1071 19.8454 20.686 20.9901 21.4505 21.7802Z" fill="#B2F1A8"/>
<path d="M16.1199 24.088L16.0949 25.5899L17.6666 31.1663L18.0705 22.8247C17.2461 22.4774 16.1391 22.9888 16.1206 24.088H16.1199Z" fill="#B2F1A8"/>
<path d="M17.1493 16.7283L21.5664 18.6454L30.6545 18.2691L24.8811 16.5985L17.1493 16.7283Z" fill="#B2F1A8"/>
<path d="M10.7189 21.9509L9.63884 22.9954L6.80719 28.0499L12.9911 22.4373C12.6537 21.6082 11.509 21.1871 10.7189 21.9516V21.9509Z" fill="#B2F1A8"/>
<path d="M15.0254 17.1507L10.5463 18.9188L4.38608 25.611L9.64937 22.7101L15.0254 17.1507Z" fill="#B2F1A8"/>
<path d="M8.41116 16.6203L6.90933 16.5952L1.33301 18.1669L9.67442 18.5709C10.0217 17.7465 9.51034 16.6394 8.41116 16.6203Z" fill="#B2F1A8"/>
<path d="M15.7707 17.6496L13.8537 22.0662L14.23 31.1545L15.9012 25.3817L15.7707 17.6496Z" fill="#B2F1A8"/>
</svg>
