<svg width="32" height="33" viewBox="0 0 32 33" fill="none" xmlns="http://www.w3.org/2000/svg">
<path d="M16.4948 10.5456V10.5788L16.5211 14.1246L17.9941 10.9052L17.3098 13.597L18.8698 11.2683L18.8489 11.3164L17.4366 14.5669L20.0879 12.2254L20.1068 12.2091L18.4073 14.3685L20.7432 12.8979L20.6987 12.9393L18.0925 15.3316L21.4625 14.2763L21.5137 14.2601L19.0949 15.5341L21.8063 15.148L21.7436 15.1691L18.3959 16.2894L21.9007 16.7025L21.964 16.71L19.2318 16.8861L21.8568 17.6393L21.8063 17.6345L18.2941 17.2898L21.329 19.0996L21.387 19.1342L18.8003 18.171L20.8982 19.9361L20.8733 19.9219L17.804 18.171L19.8439 21.0652L19.8749 21.1093L17.8808 19.1518L19.0929 21.643L16.9977 18.7894L17.69 22.2668L17.6961 22.298L16.6519 19.6577L16.7523 22.468L15.9993 19.0312L15.2241 22.491V22.4938L15.34 19.6164L14.2817 22.256L14.9787 18.8395L12.8889 21.6579L14.1718 19.0542L12.1036 21.0646L14.1172 18.2367L11.0903 19.9443L13.3325 18.0762L10.6077 19.0759L13.5806 17.3223L10.1391 17.644L12.9482 16.8522L10.0414 16.651L13.4714 16.2636L10.2059 15.1535L13.079 15.5761L10.5025 14.2032L13.8104 15.2564L11.2744 12.9054L13.706 14.4524L11.9168 12.1563L14.5331 14.4883L13.1606 11.2879L14.734 13.6613L14.0363 10.8626V10.8646L15.4964 14.0941L15.5382 10.5835L16.0074 13.3518L16.4968 10.5456M17.2175 1.83301L16.0162 8.71609L14.854 1.85874L14.7502 10.5388L11.1652 2.60516L12.864 9.4212L9.00392 3.59814L12.4123 11.5453L5.94944 5.78456L10.2794 11.3408L4.36456 7.57818L10.6811 13.4331L2.4716 10.8192L8.68976 14.1327L1.73748 13.1093L9.87421 15.8748L1.33301 16.84L8.35472 17.3257L1.57703 19.2358L10.1371 18.4365L2.7298 22.8067L9.32748 20.3859L3.9102 24.899L11.4227 20.6615L6.42133 27.6855L11.449 22.7986L8.33517 29.1194L13.499 22.1557L11.7685 30.6353L14.3686 24.1498L14.0841 31.1663L15.9892 22.6644L17.8471 31.144L17.5991 24.1952L20.1654 30.6868L18.4586 22.1124L23.6069 29.1242L20.5827 22.9103L25.5268 27.7634L20.4836 20.6094L28.0507 24.926L22.7898 20.5003L29.2412 22.9022L21.7281 18.4216L30.4108 19.2744L23.8199 17.3833L30.6663 16.9423L21.991 15.9195L30.2794 13.1458L23.4869 14.1124L29.5561 10.9154L21.2285 13.5231L27.6786 7.60255L21.8447 11.2744L26.1025 5.86384L19.5695 11.6334L23.0595 3.60086L19.1974 9.36633L20.903 2.66003L17.2822 10.574L17.2188 1.8337L17.2175 1.83301Z" fill="#B2F1A8"/>
</svg>
