<svg width="41" height="41" viewBox="0 0 41 41" fill="none" xmlns="http://www.w3.org/2000/svg">
<mask id="mask0_382_2105" style="mask-type:alpha" maskUnits="userSpaceOnUse" x="0" y="0" width="41" height="41">
<path d="M5.26549 9.16759L19.7682 19.6072L20.214 1.8164C19.7725 9.23295 11.3908 13.3572 5.23709 9.14177C5.24656 9.15038 5.25602 9.15898 5.26549 9.16759Z" fill="black"/>
<path d="M39.1881 25.0124C32.0533 22.9322 29.8959 13.845 35.3767 8.7856C35.3664 8.79334 35.3561 8.80023 35.3449 8.80711L21.9368 20.6189L39.1872 25.0124H39.1881Z" fill="black"/>
<path d="M35.2881 8.84668C29.2127 13.1266 20.7613 9.14606 20.2209 1.70801C20.2209 1.72091 20.2191 1.73383 20.2183 1.74588L21.096 19.59L35.2881 8.84582V8.84668Z" fill="black"/>
<path d="M5.31712 9.21402C10.8427 14.183 8.84191 23.3056 1.70801 25.4873C1.72092 25.4847 1.73296 25.4838 1.74587 25.4812L18.9524 20.655L5.31712 9.21402Z" fill="black"/>
<path d="M39.2913 25.0433C39.2793 25.0399 39.2673 25.0356 39.2543 25.0322L21.6571 21.9171L28.9769 38.1395C26.1552 31.2658 31.9174 23.9146 39.2913 25.0433Z" fill="black"/>
<path d="M20.467 22.5072L12.3435 38.3425C15.9603 31.8517 25.3015 31.7717 29.0165 38.2384C29.0113 38.2264 29.007 38.2143 29.0018 38.2032L20.4661 22.5072H20.467Z" fill="black"/>
<path d="M1.81471 25.4701C9.14568 24.2493 15.0327 31.5015 12.291 38.4372C12.297 38.426 12.3039 38.4148 12.3099 38.4036L19.2639 21.9463L1.81471 25.4709V25.4701Z" fill="black"/>
</mask>
<g mask="url(#mask0_382_2105)">
<rect width="41" height="41" fill="#B2F1A8"/>
</g>
</svg>
