<svg width="28" height="28" viewBox="0 0 28 28" fill="none" xmlns="http://www.w3.org/2000/svg">
<path d="M28 15.4737V24.3158C27.9991 25.2926 27.6107 26.2292 26.9199 26.9199C26.2292 27.6107 25.2926 27.9991 24.3158 28H3.68421C2.70737 27.9991 1.7708 27.6107 1.08008 26.9199C0.389347 26.2292 0.000901348 25.2926 0 24.3158V3.68421C0.000901348 2.70737 0.389347 1.7708 1.08008 1.08008C1.7708 0.389348 2.70737 0.000901473 3.68421 1.24091e-07H12.5263C12.7217 1.24091e-07 12.9092 0.0776316 13.0473 0.215816C13.1855 0.354001 13.2632 0.54142 13.2632 0.736842C13.2632 0.932265 13.1855 1.11968 13.0473 1.25787C12.9092 1.39605 12.7217 1.47368 12.5263 1.47368H3.68421C3.09814 1.47432 2.53625 1.70742 2.12184 2.12184C1.70742 2.53625 1.47432 3.09814 1.47368 3.68421V24.3158C1.47432 24.9019 1.70742 25.4637 2.12184 25.8782C2.53625 26.2926 3.09814 26.5257 3.68421 26.5263H24.3158C24.9019 26.5257 25.4637 26.2926 25.8782 25.8782C26.2926 25.4637 26.5257 24.9019 26.5263 24.3158V15.4737C26.5263 15.2783 26.6039 15.0908 26.7421 14.9527C26.8803 14.8145 27.0677 14.7368 27.2632 14.7368C27.4586 14.7368 27.646 14.8145 27.7842 14.9527C27.9224 15.0908 28 15.2783 28 15.4737ZM27.2632 1.24091e-07H18.4211C18.2256 1.24091e-07 18.0382 0.0776316 17.9 0.215816C17.7618 0.354001 17.6842 0.54142 17.6842 0.736842C17.6842 0.932265 17.7618 1.11968 17.9 1.25787C18.0382 1.39605 18.2256 1.47368 18.4211 1.47368H25.4844L13.4791 13.479C13.4087 13.547 13.3526 13.6283 13.3139 13.7182C13.2753 13.8081 13.255 13.9048 13.2541 14.0026C13.2533 14.1005 13.2719 14.1975 13.309 14.288C13.346 14.3786 13.4007 14.4609 13.4699 14.5301C13.5391 14.5992 13.6214 14.6539 13.7119 14.691C13.8025 14.728 13.8995 14.7467 13.9974 14.7458C14.0952 14.745 14.1919 14.7247 14.2818 14.686C14.3717 14.6474 14.453 14.5913 14.521 14.5209L26.5263 2.51558V9.57895C26.5263 9.77437 26.6039 9.96179 26.7421 10.1C26.8803 10.2382 27.0677 10.3158 27.2632 10.3158C27.4586 10.3158 27.646 10.2382 27.7842 10.1C27.9224 9.96179 28 9.77437 28 9.57895V0.736842C28.0001 0.640063 27.981 0.544222 27.944 0.454799C27.907 0.365376 27.8527 0.284124 27.7843 0.215691C27.7159 0.147258 27.6346 0.0929845 27.5452 0.0559746C27.4558 0.0189648 27.3599 -5.60568e-05 27.2632 1.24091e-07Z" fill="#B2F1A8"/>
</svg>
