<svg width="32" height="33" viewBox="0 0 32 33" fill="none" xmlns="http://www.w3.org/2000/svg">
<path d="M11.45 17.3707L6.52595 14.8616L1.33398 14.7125L10.6973 17.793L11.45 17.3707Z" fill="#AFF4C6"/>
<path d="M16.7543 7.60007L16.0003 2.5L14.5695 12.1855L15.1194 12.8479L16.7543 7.60007Z" fill="#AFF4C6"/>
<path d="M20.2448 15.648L25.7367 16.3349L30.6673 14.7125L20.8067 14.9955L20.2448 15.648Z" fill="#AFF4C6"/>
<path d="M25.5738 5.95723L18.203 12.4646L18.1957 13.3223L22.8471 10.3454L25.5738 5.95723Z" fill="#AFF4C6"/>
<path d="M12.4552 14.4466L10.3084 9.38347L6.42755 5.95723L11.6049 14.2902L12.4552 14.4466Z" fill="#AFF4C6"/>
<path d="M18.356 21.1433L18.6286 26.6294L21.0945 31.1667L19.1006 21.5788L18.356 21.1433Z" fill="#AFF4C6"/>
<path d="M12.5743 20.252L7.17686 21.4706L3.10321 24.6685L12.2711 21.0556L12.5743 20.252Z" fill="#AFF4C6"/>
<path d="M20.308 18.7371L24.0705 22.7657L28.8981 24.6685L21.161 18.5953L20.308 18.7371Z" fill="#AFF4C6"/>
<path d="M11.9566 26.118L10.9068 31.1667L15.5901 22.5506L15.3015 21.7417L11.9566 26.118Z" fill="#AFF4C6"/>
<path d="M23.3883 17.1359L18.104 16.4754L21.5626 12.456L17.0867 15.3208L17.1326 10.0353L15.5595 15.0853L12.1713 11.0072L14.2371 15.8783L8.99992 14.9157L13.7384 17.3298L9.10298 19.9333L14.2963 18.7602L12.4313 23.7112L15.6499 19.4998L17.4285 24.4818L17.1658 19.2029L21.7554 21.8849L18.1352 18.0087L23.3883 17.1359Z" fill="#AFF4C6"/>
</svg>
