<svg width="19" height="19" viewBox="0 0 19 19" fill="none" xmlns="http://www.w3.org/2000/svg">
<g clip-path="url(#clip0_366_2740)">
<rect width="19" height="19" rx="2" fill="#E02525"/>
<path d="M6.79737 10.017L3.87374 8.52719L0.791016 8.43867L6.3505 10.2677L6.79737 10.017Z" fill="white"/>
<path d="M9.94681 4.21567L9.49916 1.1875L8.64962 6.93828L8.97609 7.33159L9.94681 4.21567Z" fill="white"/>
<path d="M12.0193 8.99415L15.2801 9.40196L18.2077 8.43867L12.3529 8.60671L12.0193 8.99415Z" fill="white"/>
<path d="M15.1834 3.24023L10.807 7.10399L10.8027 7.61325L13.5645 5.8457L15.1834 3.24023Z" fill="white"/>
<path d="M7.39426 8.28078L6.11956 5.27456L3.81532 3.24023L6.88936 8.18794L7.39426 8.28078Z" fill="white"/>
<path d="M10.8978 12.257L11.0597 15.5143L12.5238 18.2083L11.3399 12.5155L10.8978 12.257Z" fill="white"/>
<path d="M7.46493 11.7277L4.26022 12.4513L1.84149 14.3501L7.28491 12.2049L7.46493 11.7277Z" fill="white"/>
<path d="M12.0568 10.8283L14.2908 13.2203L17.1572 14.3501L12.5633 10.7441L12.0568 10.8283Z" fill="white"/>
<path d="M7.09819 15.2107L6.47485 18.2083L9.25558 13.0926L9.08426 12.6123L7.09819 15.2107Z" fill="white"/>
<path d="M13.8858 9.87754L10.7482 9.48539L12.8018 7.0989L10.1442 8.79984L10.1714 5.6616L9.23742 8.66L7.2257 6.23863L8.45224 9.13088L5.34267 8.55931L8.15616 9.99271L5.40386 11.5385L8.48737 10.842L7.38005 13.7816L9.29111 11.2811L10.3471 14.2392L10.1912 11.1049L12.9162 12.6973L10.7667 10.3958L13.8858 9.87754Z" fill="white"/>
</g>
<defs>
<clipPath id="clip0_366_2740">
<rect width="19" height="19" rx="2" fill="white"/>
</clipPath>
</defs>
</svg>
