<svg width="78" height="78" viewBox="0 0 78 78" fill="none" xmlns="http://www.w3.org/2000/svg">
<g clip-path="url(#clip0_452_4205)">
<rect width="78" height="78" rx="2" fill="#C5C5C5"/>
<path d="M27.9077 41.1223L15.9054 35.0064L3.25 34.643L26.0732 42.1517L27.9077 41.1223Z" fill="white"/>
<path d="M40.837 17.3064L38.9992 4.875L35.5116 28.4835L36.8519 30.0981L40.837 17.3064Z" fill="white"/>
<path d="M49.3452 36.9233L62.7315 38.5975L74.75 34.643L50.7147 35.3328L49.3452 36.9233Z" fill="white"/>
<path d="M62.3345 13.302L44.3683 29.1637L44.3505 31.2544L55.6883 23.9982L62.3345 13.302Z" fill="white"/>
<path d="M30.3581 33.9948L25.1251 21.6534L15.6656 13.302L28.2853 33.6136L30.3581 33.9948Z" fill="white"/>
<path d="M44.741 50.3181L45.4055 63.6903L51.4164 74.75L46.5561 51.3795L44.741 50.3181Z" fill="white"/>
<path d="M30.6482 48.1455L17.492 51.1158L7.56248 58.9108L29.9092 50.1042L30.6482 48.1455Z" fill="white"/>
<path d="M49.4992 44.453L58.6702 54.2727L70.4376 58.9108L51.5784 44.1072L49.4992 44.453Z" fill="white"/>
<path d="M29.1426 62.444L26.5836 74.75L37.9993 53.7484L37.2959 51.7767L29.1426 62.444Z" fill="white"/>
<path d="M57.0075 40.5499L44.1268 38.94L52.5573 29.1428L41.6473 36.1257L41.7591 23.2423L37.9247 35.5516L29.6661 25.6112L34.7013 37.4846L21.9357 35.1382L33.4859 41.0227L22.1869 47.3687L34.8455 44.5092L30.2997 56.5772L38.1451 46.312L42.4803 58.4557L41.8402 45.5883L53.0272 52.1258L44.203 42.6776L57.0075 40.5499Z" fill="white"/>
</g>
<defs>
<clipPath id="clip0_452_4205">
<rect width="78" height="78" rx="2" fill="white"/>
</clipPath>
</defs>
</svg>
